:SAMPLES-PER-SECOND 30
:FRAME-RANGE 1-1700
:FULLY-SPECIFIED
:DEGREES
744
root  -11.138 38.4069 14.7022 163.544 13.1193 179.449
RightUpLeg  15.2283 -4.20518 11.3117
RightLeg  33.3696 0.336027 -0.00626466
RightFoot  -10.5832 -0.0517308 -2.99386
RightToes  -1.16417e-010 0 -3.6325e-017
Spine  5.55677 7.19892 -6.97628
Spine1  -6.16036 -5.02088 4.29712
HEad  10.5387 13.2558 -4.91121
LeftShoulder1  3.08641 -5.07445 -29.9583
LeftArm  88.8136 -31.4399 -86.3206
LeftForeArm  -7.89482 -18.831 -10.4725
LeftHand  -0.00735797 4.82016 -2.49339
RightShoulder  13.992 22.7917 46.4083
RightArm  46.1352 6.94656 22.6699
RightForeArm  12.2322 24.5956 4.62375
RightHand  1.47268 7.28607 13.0266
LeftUpLeg  -110.883 24.0427 -75.0405
LeftLeg  148.528 -5.57584 2.79288
LeftFoot  -3.16817 0.985186 -13.4747
LeftToes  1.03528e-008 1.55373e-010 -2.26046e-010
745
root  -10.9506 38.7503 13.9204 162.462 14.2844 179.326
RightUpLeg  12.1549 -4.34752 11.8574
RightLeg  40.6962 -1.8238 -1.95872
RightFoot  -2.32168 0.520142 -6.78014
RightToes  -1.16417e-010 0 -3.6325e-017
Spine  6.62322 8.4631 -6.74145
Spine1  -6.54205 -4.70743 4.0637
HEad  11.4372 14.6179 -4.9294
LeftShoulder1  3.03922 -5.09841 -29.2979
LeftArm  93.1079 -32.1561 -87.6015
LeftForeArm  -11.5158 -19.7128 -9.64812
LeftHand  -0.0091042 4.73277 -2.19886
RightShoulder  14.1849 23.338 46.0661
RightArm  44.5403 8.14717 22.4888
RightForeArm  12.8499 23.988 4.45961
RightHand  1.48074 7.72026 12.6459
LeftUpLeg  -112.201 22.8699 -74.6077
LeftLeg  148.393 -5.33123 2.67215
LeftFoot  -6.28077 0.648365 -13.7693
LeftToes  1.03528e-008 1.55373e-010 -2.26046e-010
746
root  -10.6621 38.687 13.175 162.167 15.0349 178.969
RightUpLeg  9.78364 -3.45901 13.2022
RightLeg  40.919 -3.26884 -3.31068
RightFoot  -4.91871 0.514359 -9.72586
RightToes  -1.16417e-010 0 -3.6325e-017
Spine  7.04097 9.58912 -7.54411
Spine1  -7.01603 -4.67524 3.84336
HEad  12.283 15.558 -4.74545
LeftShoulder1  3.01014 -5.06204 -29.1044
LeftArm  89.6141 -33.4002 -88.8195
LeftForeArm  -8.02136 -18.5601 -10.7922
LeftHand  -0.0160828 4.97427 -1.83415
RightShoulder  14.3206 24.0016 45.3401
RightArm  43.9377 9.288 22.4218
RightForeArm  12.5168 23.6381 4.4146
RightHand  1.51712 7.9956 12.6841
LeftUpLeg  -113.3 22.0006 -75.0616
LeftLeg  147.903 -6.58605 3.45468
LeftFoot  -8.02107 0.48048 -14.8573
LeftToes  1.03528e-008 1.55373e-010 -2.26046e-010
747
root  -10.3491 38.4095 12.4633 162.156 15.8652 -179.677
RightUpLeg  9.05036 -1.96925 16.7048
RightLeg  32.7119 -2.17252 -1.74832
RightFoot  -8.28653 0.151157 -7.74712
RightToes  -1.16417e-010 0 -3.6325e-017
Spine  8.49747 10.3599 -6.23327
Spine1  -8.32726 -4.60077 3.9576
HEad  12.8397 16.4253 -4.79661
LeftShoulder1  2.96927 -5.04524 -28.686
LeftArm  84.4894 -34.5207 -90.1654
LeftForeArm  -2.55037 -16.9239 -12.2359
LeftHand  -0.021402 5.11749 -1.4497
RightShoulder  14.4405 24.6853 44.5566
RightArm  43.4987 10.0069 22.5496
RightForeArm  12.6528 23.5075 4.40218
RightHand  1.48609 7.94308 12.4705
LeftUpLeg  -113.964 23.659 -73.9607
LeftLeg  148.584 -2.09285 0.827755
LeftFoot  -8.91048 0.237417 -8.66601
LeftToes  1.03528e-008 1.55373e-010 -2.26046e-010
748
root  -10.1896 37.6413 11.8331 161.974 17.2414 -178.551
RightUpLeg  8.12191 -2.39997 19.173
RightLeg  24.907 1.92622 0.747288
RightFoot  -10.9882 -0.046879 -8.78681
RightToes  -1.16417e-010 0 -3.6325e-017
Spine  10.1637 11.1204 -3.83518
Spine1  -8.54376 -4.28888 3.22644
HEad  11.9172 17.0052 -5.40003
LeftShoulder1  2.96305 -5.24126 -27.8149
LeftArm  90.4478 -35.3725 -91.4548
LeftForeArm  -7.55234 -18.2904 -11.0689
LeftHand  -0.0248746 5.16604 -1.21635
RightShoulder  14.7976 25.5952 44.1872
RightArm  42.1141 10.1557 21.9968
RightForeArm  13.7508 24.1292 4.4422
RightHand  1.45843 8.00084 12.178
LeftUpLeg  -115.634 26.8389 -73.3846
LeftLeg  149.126 0.273077 -0.502432
LeftFoot  -7.61255 0.294428 -7.63751
LeftToes  1.03528e-008 1.55373e-010 -2.26046e-010
749
root  -10.147 36.5823 11.2125 161.709 17.8861 -177.181
RightUpLeg  6.27978 -10.2495 19.3027
RightLeg  27.2816 3.32571 1.61632
RightFoot  -14.246 -0.622989 -20.5563
RightToes  -1.16417e-010 0 -3.6325e-017
Spine  11.518 11.0977 -0.803896
Spine1  -7.98821 -3.86542 2.58388
HEad  11.8241 17.4947 -5.96318
LeftShoulder1  2.9316 -5.30971 -27.1759
LeftArm  91.6957 -35.9469 -92.3554
LeftForeArm  -8.08475 -18.4659 -10.9031
LeftHand  -0.0246792 4.97691 -0.956326
RightShoulder  15.0699 26.3586 43.8073
RightArm  40.8936 9.64238 21.493
RightForeArm  14.401 24.9651 4.58848
RightHand  1.45903 7.89086 12.289
LeftUpLeg  -116.874 32.0819 -73.0059
LeftLeg  149.654 1.66649 -1.25013
LeftFoot  -6.1839 0.30701 -5.99084
LeftToes  1.03528e-008 1.55373e-010 -2.26046e-010
750
root  -10.2838 35.2778 10.6643 159.804 19.4377 -175.649
RightUpLeg  4.48443 -10.5254 20.9891
RightLeg  38.1169 2.1231 1.49454
RightFoot  -19.7727 -1.72834 -21.3676
RightToes  -1.16417e-010 0 -3.6325e-017
Spine  14.2793 10.8117 3.98481
Spine1  -6.72254 -2.93142 1.54582
HEad  10.8115 18.5654 -6.72474
LeftShoulder1  2.80622 -4.81168 -27.6729
LeftArm  93.1024 -36.2448 -92.4007
LeftForeArm  -7.08967 -18.6287 -10.6577
LeftHand  -0.0287024 5.10623 0.621641
RightShoulder  15.6843 26.8874 44.8425
RightArm  40.3571 10.5097 20.6135
RightForeArm  12.9636 24.8765 4.64597
RightHand  1.418 7.42642 12.39
LeftUpLeg  -119.906 39.1702 -73.4219
LeftLeg  150.38 3.36313 -2.10845
LeftFoot  -4.52363 -0.24073 4.4975
LeftToes  1.03528e-008 1.55373e-010 -2.26046e-010
751
root  -10.2792 34.4072 10.1577 159.414 18.6739 -174.841
RightUpLeg  2.91297 -12.9188 21.0142
RightLeg  44.3004 2.04785 1.80871
RightFoot  -23.6193 -2.58021 -22.2026
RightToes  -1.16417e-010 0 -3.6325e-017
Spine  13.5498 9.75091 5.15832
Spine1  -2.94938 -3.17983 1.34646
HEad  11.408 20.1354 -7.00457
LeftShoulder1  2.75785 -4.79463 -27.1431
LeftArm  100.184 -35.5799 -92.093
LeftForeArm  -12.8007 -20.3552 -8.9415
LeftHand  -0.0321281 4.8772 1.62428
RightShoulder  16.3721 27.8495 45.3698
RightArm  38.6638 11.1543 20.87
RightForeArm  13.2885 23.44 4.36937
RightHand  1.42036 7.76159 12.0795
LeftUpLeg  -118.655 41.2484 -72.8847
LeftLeg  150.449 0.153916 -0.430715
LeftFoot  -10.9261 0.0193042 12.8212
LeftToes  1.03528e-008 1.55373e-010 -2.26046e-010
752
root  -10.1215 33.9265 9.55816 158.394 16.7777 -174.856
RightUpLeg  3.15181 -12.4448 21.6371
RightLeg  47.0674 -0.27132 -0.665515
RightFoot  -26.6442 -3.02024 -20.8875
RightToes  -1.16417e-010 0 -3.6325e-017
Spine  14.2667 9.79323 3.93146
Spine1  -3.26382 -3.35236 2.90162
HEad  14.2778 20.3639 -6.28402
LeftShoulder1  2.80664 -4.79495 -27.748
LeftArm  96.4463 -35.9923 -92.0973
LeftForeArm  -8.65699 -19.3948 -9.85259
LeftHand  -0.0383959 4.96191 1.42076
RightShoulder  16.147 26.934 46.1531
RightArm  38.1532 10.8739 20.5556
RightForeArm  13.0695 23.4359 4.38058
RightHand  1.38989 7.73659 11.8381
LeftUpLeg  -117.973 42.5983 -73.5389
LeftLeg  150.947 -2.29056 0.82048
LeftFoot  -14.2221 0.488692 15.9057
LeftToes  1.03528e-008 1.55373e-010 -2.26046e-010
753
root  -9.93218 33.7959 8.96151 158.177 15.1118 -175.723
RightUpLeg  3.34008 -11.123 21.5981
RightLeg  48.215 -2.11681 -2.89208
RightFoot  -28.4644 -3.13286 -19.3287
RightToes  -1.16417e-010 0 -3.6325e-017
Spine  14.4253 10.139 2.92102
Spine1  -4.42256 -3.74571 1.98338
HEad  15.4005 19.9731 -6.53159
LeftShoulder1  2.81032 -4.84898 -27.5685
LeftArm  98.0873 -35.9347 -92.3002
LeftForeArm  -11.6879 -19.8857 -9.44816
LeftHand  -0.0396957 4.77663 0.693188
RightShoulder  15.5479 26.1306 45.6474
RightArm  36.3617 10.2358 20.7541
RightForeArm  15.074 24.7251 4.5004
RightHand  1.34047 7.63993 11.4963
LeftUpLeg  -118.474 41.2681 -76.5344
LeftLeg  151.233 -1.62073 0.468606
LeftFoot  -11.9522 0.149706 14.4544
LeftToes  1.03528e-008 1.55373e-010 -2.26046e-010
754
root  -9.74759 33.8734 8.33715 157.716 13.8602 -176.835
RightUpLeg  4.66773 -9.93466 21.0188
RightLeg  48.0092 -3.40898 -4.39693
RightFoot  -29.5724 -3.10398 -17.9353
RightToes  -1.16417e-010 0 -3.6325e-017
Spine  14.1016 10.9341 1.8286
Spine1  -4.94272 -3.94281 1.67849
HEad  15.0372 19.8569 -7.71014
LeftShoulder1  2.80381 -4.94453 -27.0966
LeftArm  101.382 -35.8472 -92.874
LeftForeArm  -14.6129 -20.6621 -8.68094
LeftHand  -0.0361255 4.64852 0.685276
RightShoulder  15.1635 26.3699 44.0782
RightArm  35.1719 9.77806 21.0108
RightForeArm  17.0932 25.823 4.6317
RightHand  1.28797 7.51157 11.1508
LeftUpLeg  -120.33 40.9823 -80.0756
LeftLeg  151.54 3.39581 -2.03754
LeftFoot  -7.2841 -0.501123 15.2929
LeftToes  1.03528e-008 1.55373e-010 -2.26046e-010
755
root  -9.56127 34.0069 7.82769 157.37 13.2841 -178.042
RightUpLeg  6.1404 -8.28665 20.6432
RightLeg  47.2162 -4.68984 -5.74156
RightFoot  -30.3606 -3.0303 -16.7295
RightToes  -1.16417e-010 0 -3.6325e-017
Spine  13.8869 12.0915 1.14795
Spine1  -5.89533 -3.54597 0.827544
HEad  15.7544 19.5689 -7.75037
LeftShoulder1  2.82339 -4.9744 -27.2147
LeftArm  103.155 -35.4901 -92.8855
LeftForeArm  -16.3962 -21.1297 -8.22336
LeftHand  -0.0288101 4.14699 0.634661
RightShoulder  14.7947 26.2403 43.1404
RightArm  34.6105 9.3045 20.845
RightForeArm  18.159 26.8132 4.79343
RightHand  1.27432 7.4962 11.0434
LeftUpLeg  -122.077 40.234 -82.8058
LeftLeg  151.765 4.59369 -2.6083
LeftFoot  -7.14695 -0.445049 13.2686
LeftToes  1.03528e-008 1.55373e-010 -2.26046e-010
756
root  -9.3624 34.142 7.44484 156.912 12.7706 -179.271
RightUpLeg  7.61464 -7.26379 19.9528
RightLeg  46.3229 -5.45628 -6.40906
RightFoot  -30.8439 -2.98522 -16.0372
RightToes  -1.16417e-010 0 -3.6325e-017
Spine  13.8263 13.0864 0.530189
Spine1  -6.70821 -3.17257 -0.494228
HEad  16.7379 19.6147 -7.63854
LeftShoulder1  2.81747 -4.99853 -27.0452
LeftArm  104.431 -35.1476 -93.1198
LeftForeArm  -17.7366 -21.4546 -7.91921
LeftHand  -0.0278627 4.05044 0.544884
RightShoulder  14.6709 26.1848 42.841
RightArm  34.2771 9.01811 20.867
RightForeArm  18.4873 26.9758 4.81191
RightHand  1.2984 7.65801 11.1102
LeftUpLeg  -122.495 38.6587 -84.5527
LeftLeg  151.901 1.9553 -1.30601
LeftFoot  -11.9219 0.143824 14.097
LeftToes  1.03528e-008 1.55373e-010 -2.26046e-010
757
root  -9.35755 34.1164 6.99424 156.197 12.3136 179.883
RightUpLeg  8.81155 -6.92813 18.8908
RightLeg  46.9485 -5.20256 -6.25957
RightFoot  -31.8053 -2.91639 -14.8677
RightToes  -1.16417e-010 0 -3.6325e-017
Spine  13.674 13.5317 0.586317
Spine1  -7.32602 -3.02208 -0.852089
HEad  17.1909 19.9368 -7.84997
LeftShoulder1  2.8105 -5.03593 -26.8108
LeftArm  104.312 -35.1421 -93.2494
LeftForeArm  -16.6592 -21.4037 -7.90702
LeftHand  -0.0331427 3.48967 0.909177
RightShoulder  14.8374 26.4794 42.8968
RightArm  34.8235 9.33159 21.2217
RightForeArm  17.7368 26.0307 4.64269
RightHand  1.29606 7.7337 11.0221
LeftUpLeg  -124.387 38.6298 -86.3363
LeftLeg  152.02 0.49681 -0.590259
LeftFoot  -13.5834 0.35685 13.9693
LeftToes  1.03528e-008 1.55373e-010 -2.26046e-010
758
root  -9.3517 33.9381 6.59411 155.317 11.8972 179.069
RightUpLeg  9.66791 -7.2958 17.6426
RightLeg  48.5351 -4.81207 -6.14495
RightFoot  -32.9851 -2.96889 -14.2761
RightToes  -1.16417e-010 0 -3.6325e-017
Spine  13.4157 13.7733 0.44072
Spine1  -7.60714 -3.02839 -0.821131
HEad  17.2295 20.5483 -8.00558
LeftShoulder1  2.8239 -5.07536 -26.816
LeftArm  102.774 -35.475 -93.0703
LeftForeArm  -16.4888 -21.0512 -8.32624
LeftHand  -0.027075 4.35368 0.420324
RightShoulder  15.1206 26.8286 43.2241
RightArm  35.5558 9.72951 21.5313
RightForeArm  17.3109 25.0724 4.45613
RightHand  1.28914 7.8867 10.8282
LeftUpLeg  -126.765 39.3894 -89.1041
LeftLeg  152.158 0.536582 -0.607891
LeftFoot  -14.4731 0.536509 16.3063
LeftToes  1.03528e-008 1.55373e-010 -2.26046e-010
